<svg xmlns="http://www.w3.org/2000/svg" xmlns:xlink="http://www.w3.org/1999/xlink" width="393.578" height="572" viewBox="0 0 393.578 572"><defs><style>.a{fill:url(#a);}.b,.k{fill:#1fff89;}.c{opacity:0.1;}.d,.h,.i{opacity:0.3;}.e{fill:#dee3f3;}.f{fill:#0faa6c;}.g,.h{fill:#16b260;}.i,.j,.l{fill:#009989;}.k,.l{stroke:#1fff89;stroke-linecap:square;stroke-linejoin:bevel;}.m{stroke:none;}.n{fill:none;}</style><linearGradient id="a" x1="0.5" y1="1" x2="0.5" gradientUnits="objectBoundingBox"><stop offset="0" stop-color="gray" stop-opacity="0.251"/><stop offset="0.54" stop-color="gray" stop-opacity="0.122"/><stop offset="1" stop-color="gray" stop-opacity="0.102"/></linearGradient></defs><g transform="translate(-1398.111 -508.3)"><g transform="translate(985.99 545)"><path class="a" d="M552.66,540.06h19V526.24H416.16v13.82h19v13.83h-31.1v17.27h179.7V553.89h-31.1Z" transform="translate(115 -181)"/><path class="a" d="M765.69,626.46h0c1.36-18.6.88-34.61-1-48.4-2.13-15.87-6.08-28.78-11.09-39.28-10-21-24.25-32.39-36.76-38.58a69.16,69.16,0,0,0-26.9-7.34,12.08,12.08,0,0,0-23.91-.05V461.75H600.37V444.47h88.48a10,10,0,0,0,10-10V343.9a10,10,0,0,0-10-10H655.26V244.62a13.48,13.48,0,0,0,7.93-12.28v-.8a13.5,13.5,0,0,0-27,0c0,.13,0,.26,0,.4v.4a13.48,13.48,0,0,0,7.14,11.9v89.65H518.81V244.24a13.48,13.48,0,0,0,7.14-11.9v-.8a13.5,13.5,0,0,0-27,0c0,.13,0,.26,0,.4v.4a13.48,13.48,0,0,0,7.93,12.28v89.26H470.43a10,10,0,0,0-10,10v90.56a10,10,0,0,0,10,10h88.48v17.28H493.25v25.46a12.07,12.07,0,0,0-2.61-4.35l-.29-.29a12.09,12.09,0,0,0-20.64,8.55v1.73s-12.42,0-27.27,7.35c-12.51,6.19-26.75,17.58-36.76,38.58-5,10.5-9,23.42-11.09,39.28-1.86,13.78-2.35,29.8-1,48.4-27.73,23,7,56.46,7,56.46,28.45,0,27.82-47.23,27.5-55.29h.14s-.08-.4-.2-1.14h0a176.9,176.9,0,0,1-1.71-39.9c.79-10.17,2.74-20.93,6.74-30.61a54.351,54.351,0,0,1,13.68-20.05,46.75,46.75,0,0,1,23-11.07v7.77a12.09,12.09,0,0,0,23.53,3.91V600H666V537.81a12.07,12.07,0,0,0,3.07,6.44l.33.35a12.09,12.09,0,0,0,20.68-8.6V524.92a46.62,46.62,0,0,1,22.46,11,54.351,54.351,0,0,1,13.68,20.05c4,9.69,5.94,20.44,6.74,30.61a176.893,176.893,0,0,1-1.71,39.9h0c-.12.74-.2,1.14-.2,1.14h.14c-.32,8.06-.95,55.29,27.5,55.29C758.69,682.92,793.42,649.48,765.69,626.46Z" transform="translate(29.27 -254.74)"/><path class="a" d="M412.7,572.75v15.7h20.74v24.18h0v79.49h-24.2V716.3H474.9V692.12H464.54V681.75h0V664.47h0v-31.1h0V612.63h0V588.45h24.18V571.17H412.7Z" transform="translate(115 -181)"/><path class="a" d="M495.64,572.75v15.7h31.1v24.18h0v79.49H502.55V716.3h65.66V692.12H557.84V612.63h0V588.45h13.82V571.17H495.64Z" transform="translate(115 -181)"/><path class="b" d="M12.97,0H219.04a12.97,12.97,0,0,1,12.97,12.97V94.63a12.97,12.97,0,0,1-12.97,12.97H12.97A12.97,12.97,0,0,1,0,94.63V12.97A12.97,12.97,0,0,1,12.97,0Z" transform="translate(492.91 83.74)"/><rect class="c" width="195.02" height="2.02" transform="translate(511.4 174.83)"/><rect class="d" width="195.02" height="73.97" transform="translate(511.4 100.55)"/><circle class="c" cx="26.9" cy="26.9" r="26.9" transform="translate(529.89 112.18)"/><circle class="e" cx="26.9" cy="26.9" r="26.9" transform="translate(529.89 110.64)"/><circle class="c" cx="26.9" cy="26.9" r="26.9" transform="translate(634.13 112.18)"/><circle class="e" cx="26.9" cy="26.9" r="26.9" transform="translate(634.13 110.64)"/><rect class="b" width="40.35" height="23.54" transform="translate(588.73 191.34)"/><rect class="b" width="168.12" height="134.5" transform="translate(524.85 208.15)"/><path class="f" d="M569.57,523.65V537.1h-18.5v13.45H436.74V537.1H418.26V523.65Z" transform="translate(115 -181)"/><path class="d" d="M569.57,523.65V537.1h-18.5v13.45H436.74V537.1H418.26V523.65Z" transform="translate(115 -181)"/><rect class="b" width="174.85" height="16.81" transform="translate(521.49 369.55)"/><rect class="b" width="73.97" height="16.81" transform="translate(529.89 386.37)"/><rect class="b" width="73.97" height="16.81" transform="translate(610.59 386.37)"/><rect class="b" width="63.89" height="23.54" transform="translate(526.53 504.05)"/><path class="b" d="M435.07,607.71v77.34h30.26V584.17H435.07Z" transform="translate(115 -181)"/><path class="b" d="M525.85,584.17V685.05h30.27V584.17Z" transform="translate(115 -181)"/><rect class="b" width="63.89" height="23.54" transform="translate(617.32 504.05)"/><path class="g" d="M496.22,491.47v41.25a11.77,11.77,0,0,1-23.5-.9V491.47a11.76,11.76,0,0,1,20.08-8.32l.28.29a11.72,11.72,0,0,1,3.13,7.13C496.2,490.86,496.22,491.17,496.22,491.47Z" transform="translate(29.27 -254.74)"/><path class="b" d="M687.1,494.83v40.36a11.76,11.76,0,0,1-20.1,8.32l-.32-.34a11.73,11.73,0,0,1-3.13-8V494.83a11.77,11.77,0,0,1,23.54,0Z" transform="translate(29.27 -254.74)"/><path class="b" d="M472.68,493.15v31.1A45.49,45.49,0,0,0,450.33,535,52.88,52.88,0,0,0,437,554.54c-3.89,9.42-5.78,19.89-6.55,29.79a170.319,170.319,0,0,0,1.86,40H398.7c-1.43-18.59-1-34.53.88-48.23,2.08-15.44,5.92-28,10.79-38.22,9.74-20.43,23.6-31.52,35.77-37.54C460.6,493.15,472.68,493.15,472.68,493.15Z" transform="translate(29.27 -254.74)"/><path class="g" d="M405.43,678.09s-33.79-32.53-6.81-54.93h33.51S435.69,678.09,405.43,678.09Z" transform="translate(29.27 -254.74)"/><path class="h" d="M413.009,623.741a27.242,27.242,0,0,1-7.543-.581S404.461,623.741,413.009,623.741Z" transform="translate(21.691 -254.74)"/><rect class="i" width="114.32" height="87.42" transform="translate(551.75 228.33)"/><rect class="d" width="30.26" height="23.54" transform="translate(550.07 403.17)"/><rect class="d" width="30.26" height="30.26" transform="translate(550.07 446.89)"/><rect class="d" width="30.26" height="10.09" transform="translate(550.07 493.96)"/><rect class="d" width="30.26" height="23.54" transform="translate(640.85 403.17)"/><rect class="d" width="30.26" height="30.26" transform="translate(640.85 446.89)"/><rect class="d" width="30.26" height="10.09" transform="translate(640.85 493.96)"/><path class="d" d="M472.68,493.15v31.1A45.49,45.49,0,0,0,450.33,535l-4.18-34.73C460.6,493.15,472.68,493.15,472.68,493.15Z" transform="translate(29.27 -254.74)"/><path class="d" d="M437,554.54c-3.89,9.42-5.78,19.89-6.55,29.79l-30.88-8.27c2.08-15.44,5.92-28,10.79-38.22Z" transform="translate(29.27 -254.74)"/><path class="b" d="M686.61,493.15v31.1A45.49,45.49,0,0,1,709,535a52.879,52.879,0,0,1,13.31,19.51c3.89,9.42,5.78,19.89,6.55,29.79a170.315,170.315,0,0,1-1.86,40h33.62c1.43-18.59,1-34.53-.88-48.23-2.08-15.44-5.92-28-10.79-38.22-9.74-20.43-23.6-31.52-35.77-37.54C698.69,493.15,686.61,493.15,686.61,493.15Z" transform="translate(29.27 -254.74)"/><path class="g" d="M753.86,678.09s33.79-32.53,6.81-54.93H727.15S723.6,678.09,753.86,678.09Z" transform="translate(29.27 -254.74)"/><path class="i" d="M753.86,678.09s33.79-32.53,6.81-54.93H727.15S723.6,678.09,753.86,678.09Z" transform="translate(29.27 -253.74)"/><path class="d" d="M686.61,493.15v31.1A45.49,45.49,0,0,1,709,535l4.18-34.73C698.69,493.15,686.61,493.15,686.61,493.15Z" transform="translate(29.27 -254.74)"/><path class="d" d="M722.27,554.54c3.89,9.42,5.78,19.89,6.55,29.79l30.88-8.27c-2.08-15.44-5.92-28-10.79-38.22Z" transform="translate(29.27 -254.74)"/><rect class="c" width="40.35" height="2.79" transform="translate(588.73 191.34)"/><path class="c" d="M666.69,486.86v56.31a11.73,11.73,0,0,1-3.13-8V494.83a11.711,11.711,0,0,1,3.131-7.971Z" transform="translate(29.27 -254.74)"/><path class="c" d="M496.18,490.57v42.15a11.72,11.72,0,0,1-3.13,7.13V483.44a11.72,11.72,0,0,1,3.13,7.13Z" transform="translate(29.27 -254.74)"/><rect class="c" width="151.31" height="1.99" transform="translate(533.26 342.65)"/><rect class="c" width="73.97" height="1.54" transform="translate(529.89 386.37)"/><rect class="c" width="73.97" height="1.54" transform="translate(610.59 386.37)"/><rect class="b" width="11.58" height="99.58" transform="translate(538.14 -15.83)"/><rect class="b" width="11.58" height="99.58" transform="translate(670.91 -15.83)"/><circle class="c" cx="13.12" cy="13.12" r="13.12" transform="translate(530.43 -28.18)"/><circle class="j" cx="13.12" cy="13.12" r="13.12" transform="translate(530.43 -28.95)"/><circle class="c" cx="13.12" cy="13.12" r="13.12" transform="translate(663.97 -28.18)"/><circle class="j" cx="13.12" cy="13.12" r="13.12" transform="translate(663.97 -28.95)"/></g><g transform="translate(326.349 159)"><g class="k" transform="matrix(0.899, -0.438, 0.438, 0.899, 1234.651, 633.983)"><rect class="m" width="14.801" height="71.699" rx="7.4"/><rect class="n" x="0.5" y="0.5" width="13.801" height="70.699" rx="6.9"/></g><rect class="j" width="14.801" height="42.042" rx="7.4" transform="translate(1288.064 626.502) rotate(23)"/><g class="l" transform="translate(1265.686 679.237) rotate(23)"><rect class="m" width="14.801" height="14.739" rx="7.369"/><rect class="n" x="0.5" y="0.5" width="13.801" height="13.739" rx="6.869"/></g></g></g></svg>