<svg id="Group_8" data-name="Group 8" xmlns="http://www.w3.org/2000/svg" width="1921.857" height="2917" viewBox="0 0 1921.857 2917">
  <rect id="Rectangle_55" data-name="Rectangle 55" width="1920" height="2917" fill="#292a2d"/>
  <g id="Group_7" data-name="Group 7" transform="translate(0 -236)">
    <path id="Subtraction_1" data-name="Subtraction 1" d="M-1442.178,2396.076c-29.568,0-58.916-.765-87.228-2.273-27.081-1.443-53.94-3.6-79.833-6.425-24.682-2.689-49.136-6.048-72.683-9.983-22.367-3.739-44.5-8.095-65.775-12.948-73.614-16.791-140.535-40.2-198.906-69.588a625.215,625.215,0,0,1-64.35-37.167,478.715,478.715,0,0,1-43.549-32.421,320.869,320.869,0,0,1-24.7-22.932c-5.145-5.365-7.692-8.563-7.8-8.7V697c28.18,2.286,57.126,5.2,86.033,8.653,28.3,3.383,57.36,7.381,86.369,11.885,28.366,4.4,57.469,9.413,86.5,14.888,28.375,5.351,57.456,11.293,86.435,17.66,28.3,6.219,57.294,13.016,86.167,20.2,28.164,7.01,57,14.585,85.7,22.515,55.207,15.253,112.128,32.428,169.182,51.048,197.36,64.408,405.2,148.753,617.739,250.693,83.494,40.045,167.927,82.938,250.955,127.486,66.413,35.634,132.083,72.4,195.186,109.287,56.141,32.814,99.8,59.64,126.549,76.367,29.131,18.219,44.887,28.624,45.043,28.727v188.182l-32.826-19.724a9.989,9.989,0,0,0-5.142-1.43,10.06,10.06,0,0,0-4.86,1.255,10,10,0,0,0-3.721,3.6l-17.3,28.792-71.5-42.961a13.238,13.238,0,0,0-1.8-5.867,13.144,13.144,0,0,0-4.443-4.51,13.433,13.433,0,0,0-5.228-5.766l-.14-.084-.056-.034-.147-.089-.234-.141-.109-.065a13.481,13.481,0,0,0-6.94-1.931,13.586,13.586,0,0,0-6.561,1.694,13.491,13.491,0,0,0-5.023,4.855A13.409,13.409,0,0,0-332.7,1592.4a13.413,13.413,0,0,0,6.146,8.306l.148.089.2.117.135.081.207.125c.129.077.267.157.411.237a13.146,13.146,0,0,0,4.452,4.424c.13.077.236.139.334.193.116.075.223.142.327.2a13.1,13.1,0,0,0,6.744,1.875,13.173,13.173,0,0,0,6.754-1.863l70.83,42.559-62.418,103.881-70.826-42.557a13.106,13.106,0,0,0-6.347-11.921c-.121-.073-.23-.136-.333-.194s-.217-.137-.328-.2a13.137,13.137,0,0,0-5.915-1.849c-.142-.094-.3-.192-.464-.292l-.342-.206-.075-.045-.268-.161a13.483,13.483,0,0,0-6.94-1.93,13.584,13.584,0,0,0-6.561,1.694,13.493,13.493,0,0,0-5.023,4.855,13.411,13.411,0,0,0-1.527,10.219,13.411,13.411,0,0,0,6.146,8.306l.239.143.1.063.171.1.171.1a13.479,13.479,0,0,0,6.937,1.922c.179,0,.36,0,.537-.011a13.1,13.1,0,0,0,6.7,1.849,13.252,13.252,0,0,0,5.488-1.2l71.458,42.936L-324.2,1795.5a9.935,9.935,0,0,0-1.131,7.569,9.933,9.933,0,0,0,4.553,6.152l77.625,46.643a9.986,9.986,0,0,0,5.14,1.429,10.07,10.07,0,0,0,4.8-1.224,9.992,9.992,0,0,0,3.705-3.51,12.976,12.976,0,0,0,4.661-4.57l42.388-70.545,13.406,8.055-33.817,56.281,18.776,11.281-.2.042-.043.009-.392.091a11.671,11.671,0,0,0-6.244,3.942,12.039,12.039,0,0,0-4.574,7.788,12.053,12.053,0,0,0,1.022,6.946,12.051,12.051,0,0,0,4.709,5.206l1.483.891a50.052,50.052,0,0,0-3.367,7.387,74.416,74.416,0,0,0-4.378,19.773,75.261,75.261,0,0,0,1.825,23.633,86.846,86.846,0,0,0,12.312,27.747,120.854,120.854,0,0,0,16.8,19.974V2193.64l-.008,0c-.541.158-13.6,3.947-43.189,11.086-27.9,6.731-76.73,17.934-150.935,33.082-83.411,17.027-181.213,35.463-290.689,54.8-136.852,24.168-292.445,49.817-462.457,76.233-30.363,4.718-60.687,8.877-90.127,12.364-28.612,3.388-57.184,6.235-84.92,8.461-26.911,2.16-53.772,3.794-79.836,4.857C-1392.557,2395.554-1417.748,2396.076-1442.178,2396.076Z" transform="translate(2087 78.77)" fill="#35353b"/>
  </g>
</svg>
